<?xml version="1.0" encoding="UTF-8"?>
<svg version="1.1" xmlns="http://www.w3.org/2000/svg" width="128" height="128">
    <path
        d="M0 0 C17.49 0 34.98 0 53 0 C59.875 12.4375 59.875 12.4375 62.11279297 16.49047852 C65.08219272 21.8441157 68.06442781 27.17762835 71.2578125 32.40234375 C71.72719238 33.17199463 72.19657227 33.94164551 72.68017578 34.73461914 C73.53809695 36.12592415 74.40827207 37.50977283 75.29248047 38.88452148 C78.05956167 43.37380099 78.05956167 43.37380099 77.77319336 46.38452148 C76.91764859 49.27856983 75.74118515 51.51655406 74.19140625 54.10546875 C73.31645508 55.58370117 73.31645508 55.58370117 72.42382812 57.09179688 C71.80958984 58.11337891 71.19535156 59.13496094 70.5625 60.1875 C64.49750216 70.35429838 58.7555393 80.64002926 53 91 C35.51 91 18.02 91 0 91 C-6.875 78.5625 -6.875 78.5625 -9.11279297 74.50952148 C-12.08219272 69.1558843 -15.06442781 63.82237165 -18.2578125 58.59765625 C-18.72719238 57.82800537 -19.19657227 57.05835449 -19.68017578 56.26538086 C-20.53809695 54.87407585 -21.40827207 53.49022717 -22.29248047 52.11547852 C-25.05956167 47.62619901 -25.05956167 47.62619901 -24.77319336 44.61547852 C-23.91764859 41.72143017 -22.74118515 39.48344594 -21.19140625 36.89453125 C-20.60810547 35.90904297 -20.02480469 34.92355469 -19.42382812 33.90820312 C-18.80958984 32.88662109 -18.19535156 31.86503906 -17.5625 30.8125 C-11.49750216 20.64570162 -5.7555393 10.35997074 0 0 Z M4 3 C5.45003621 7.35010863 6.90009224 10.99108518 9 15 C13.02043777 13.75570625 17.04061025 12.51056003 21.06054688 11.26464844 C22.42603544 10.8415666 23.79159424 10.41871135 25.15722656 9.99609375 C27.1284438 9.3860236 29.09940088 8.77511916 31.0703125 8.1640625 C32.25383301 7.79748535 33.43735352 7.4309082 34.65673828 7.05322266 C37.78299096 6.06836403 40.89387447 5.04640447 44 4 C44 3.67 44 3.34 44 3 C30.8 3 17.6 3 4 3 Z M1 6 C0.03900391 7.63195313 0.03900391 7.63195313 -0.94140625 9.296875 C-1.35737061 10.00320068 -1.77333496 10.70952637 -2.2019043 11.43725586 C-3.11203131 12.98429213 -4.02104125 14.5319861 -4.92895508 16.08032227 C-7.01857517 19.64287421 -9.11363919 23.20042733 -11.2578125 26.73046875 C-11.89460938 27.78878906 -12.53140625 28.84710938 -13.1875 29.9375 C-13.75855469 30.87464844 -14.32960938 31.81179687 -14.91796875 32.77734375 C-15.27503906 33.51082031 -15.63210937 34.24429688 -16 35 C-15.67 35.66 -15.34 36.32 -15 37 C-7.71129669 30.59669232 -0.79885803 23.9151883 6 17 C5.54917531 15.53932801 5.08906463 14.08151968 4.625 12.625 C4.36976562 11.81289063 4.11453125 11.00078125 3.8515625 10.1640625 C3.10145717 7.83540815 3.10145717 7.83540815 1 6 Z M45.46826172 5.98803711 C43.95281746 6.49344994 42.44012077 7.00714691 40.9296875 7.52734375 C40.13345978 7.79511124 39.33723206 8.06287872 38.51687622 8.33876038 C35.96715966 9.19801645 33.42111027 10.06762294 30.875 10.9375 C29.14997062 11.52086593 27.42471289 12.10355706 25.69921875 12.68554688 C21.46345357 14.11587307 17.23094925 15.55549346 13 17 C15.5122825 19.78581855 18.32939311 21.56563202 21.5234375 23.51171875 C23.18052734 24.52588867 23.18052734 24.52588867 24.87109375 25.56054688 C26.03898512 26.2696587 27.20695409 26.97864275 28.375 27.6875 C30.6328125 29.06640625 32.890625 30.4453125 35.1484375 31.82421875 C36.26959961 32.50532715 37.39076172 33.18643555 38.54589844 33.88818359 C40.93495359 35.34306239 43.31116957 36.81670682 45.68066406 38.30322266 C46.27537506 38.67469925 46.87008606 39.04617584 47.4828186 39.4289093 C49.13712928 40.46359538 50.78861844 41.50278862 52.43994141 42.54223633 C54.79866227 44.16494215 54.79866227 44.16494215 57 44 C56.34286066 35.72486731 55.01062434 27.60694783 53.5625 19.4375 C53.23668945 17.51454102 53.23668945 17.51454102 52.90429688 15.55273438 C52.58235352 13.73032227 52.58235352 13.73032227 52.25390625 11.87109375 C52.06127197 10.76693115 51.8686377 9.66276855 51.67016602 8.52514648 C51.33843384 7.27519897 51.33843384 7.27519897 51 6 C48.81220294 4.62624744 48.81220294 4.62624744 45.46826172 5.98803711 Z M55 12 C56.44152096 23.45629812 58.65809385 34.69973441 61 46 C62.6254308 45.85904936 64.25034051 45.71207913 65.875 45.5625 C66.77992187 45.48128906 67.68484375 45.40007812 68.6171875 45.31640625 C71.01110861 45.13010715 71.01110861 45.13010715 73 44 C71.50400128 39.98562789 69.61341264 36.34262768 67.5234375 32.60546875 C67.19332672 32.01325027 66.86321594 31.4210318 66.52310181 30.81086731 C65.47653441 28.9348315 64.42584018 27.06114515 63.375 25.1875 C62.66118365 23.90965861 61.94763914 22.63166533 61.234375 21.35351562 C59.49272484 18.23391361 57.74736793 15.11640374 56 12 C55.67 12 55.34 12 55 12 Z M10 20 C10 38.15 10 56.3 10 75 C22.9873651 68.07428152 22.9873651 68.07428152 35.8125 60.875 C37.08770508 60.14603516 37.08770508 60.14603516 38.38867188 59.40234375 C44.30491793 56.01006274 50.16394034 52.52827309 56 49 C53.490685 46.35892932 51.11664951 44.2775339 47.97265625 42.44140625 C47.18995361 41.97895508 46.40725098 41.51650391 45.60083008 41.04003906 C44.76318115 40.55245117 43.92553223 40.06486328 43.0625 39.5625 C41.27516979 38.50798679 39.48874278 37.45194154 37.703125 36.39453125 C36.77435547 35.84490723 35.84558594 35.2952832 34.88867188 34.72900391 C29.05660402 31.23824118 23.30108718 27.62224416 17.54125977 24.01391602 C16.69877686 23.48854248 15.85629395 22.96316895 14.98828125 22.421875 C14.24102783 21.95362305 13.49377441 21.48537109 12.72387695 21.00292969 C11.18833952 19.91618773 11.18833952 19.91618773 10 20 Z M3.77734375 23.16015625 C2.82908103 24.12598877 1.88258031 25.09355323 0.9375 26.0625 C-2.97507967 30.03101907 -6.96602241 33.80952738 -11.20703125 37.4296875 C-13.94119633 39.82431574 -16.46260146 42.3991665 -19 45 C-17.68151159 47.89215541 -16.23598182 50.04619975 -14.05859375 52.35546875 C-13.18883911 53.2834729 -13.18883911 53.2834729 -12.30151367 54.23022461 C-11.68638916 54.87612549 -11.07126465 55.52202637 -10.4375 56.1875 C-9.81141846 56.85080322 -9.18533691 57.51410645 -8.5402832 58.19750977 C-1.44297893 65.77305314 -1.44297893 65.77305314 6 73 C6.33 73 6.66 73 7 73 C7 55.84 7 38.68 7 21 C5.60294764 20.88384127 5.60294764 20.88384127 3.77734375 23.16015625 Z M72 47 C70.39172115 47.12069635 68.78767047 47.29854792 67.1875 47.5 C65.84751953 47.63921875 65.84751953 47.63921875 64.48046875 47.78125 C61.63330073 48.86415622 61.63330073 48.86415622 60.34765625 52.4140625 C59.86694618 53.9330995 59.42031367 55.46315519 59 57 C58.76498779 57.8549707 58.52997559 58.70994141 58.2878418 59.59082031 C57.56788064 62.34386064 56.90196356 65.1051193 56.25 67.875 C56.01667969 68.82375 55.78335938 69.7725 55.54296875 70.75 C55.32769531 71.65492187 55.11242187 72.55984375 54.890625 73.4921875 C54.69500977 74.31058105 54.49939453 75.12897461 54.29785156 75.97216797 C53.79307409 78.06318697 53.79307409 78.06318697 55 80 C55.33209473 79.41621582 55.66418945 78.83243164 56.00634766 78.23095703 C57.54470632 75.52829085 59.08484507 72.82664293 60.625 70.125 C61.14707031 69.2071875 61.66914062 68.289375 62.20703125 67.34375 C62.72910156 66.42851563 63.25117187 65.51328125 63.7890625 64.5703125 C64.31274414 63.6515332 64.83642578 62.73275391 65.37597656 61.78613281 C67.50379246 58.13570662 69.74414641 54.55833395 72.00927734 50.99169922 C72.49968506 50.00580811 72.49968506 50.00580811 73 49 C72.67 48.34 72.34 47.68 72 47 Z M56 52 C55.2251123 52.44279297 54.45022461 52.88558594 53.65185547 53.34179688 C40.43457031 60.89453125 27.21728516 68.44726562 14 76 C14 76.66 14 77.32 14 78 C18.64223519 79.16806589 23.28695961 80.32542035 27.93432617 81.47290039 C29.51513622 81.86481665 31.09522417 82.2596575 32.67456055 82.6574707 C34.9439671 83.22856547 37.21575718 83.78911449 39.48828125 84.34765625 C40.19463211 84.52780777 40.90098297 84.70795929 41.6287384 84.89356995 C44.94840525 85.69899341 46.69098293 86.10300569 50 85 C51.10041841 82.06393698 51.10041841 82.06393698 51.859375 78.4453125 C52.01287415 77.78796112 52.16637329 77.13060974 52.32452393 76.45333862 C52.6466124 75.06098603 52.96225864 73.66712998 53.27197266 72.27197266 C53.74734278 70.13693444 54.24497821 68.00803138 54.74609375 65.87890625 C56.7099757 58.93229104 56.7099757 58.93229104 56 52 Z M-15 56 C-13.55454275 59.8617903 -11.76719216 63.36725026 -9.7421875 66.95703125 C-9.11699219 68.06884766 -8.49179687 69.18066406 -7.84765625 70.32617188 C-7.1901709 71.48831901 -6.53261797 72.65042791 -5.875 73.8125 C-5.20935359 74.99398189 -4.54398616 76.175621 -3.87890625 77.35742188 C-2.25534066 80.23983905 -0.62894985 83.12062331 1 86 C4.67005711 82.01753614 4.67005711 82.01753614 6 77 C4.62319819 74.92960817 4.62319819 74.92960817 2.51953125 73.03125 C1.76736328 72.29519531 1.01519531 71.55914062 0.24023438 70.80078125 C-0.96149414 69.66189453 -0.96149414 69.66189453 -2.1875 68.5 C-2.96931641 67.74074219 -3.75113281 66.98148438 -4.55664062 66.19921875 C-6.02200645 64.77742794 -7.49244357 63.36083224 -8.96948242 61.95117188 C-11.00680791 59.99345812 -13.00842608 58.0041417 -15 56 Z M9 80 C7.35 82.64 5.7 85.28 4 88 C16.21 88 28.42 88 41 88 C37.66813653 86.33406827 35.05790854 85.385849 31.5 84.4921875 C30.448125 84.22792969 29.39625 83.96367188 28.3125 83.69140625 C27.219375 83.42199219 26.12625 83.15257813 25 82.875 C23.3603125 82.45927734 23.3603125 82.45927734 21.6875 82.03515625 C20.635625 81.77347656 19.58375 81.51179688 18.5 81.2421875 C17.5409375 81.0035498 16.581875 80.76491211 15.59375 80.51904297 C12.78715606 79.86918491 12.78715606 79.86918491 9 80 Z "
        fill="#ffffff" transform="translate(38,19)" />
</svg>