<?xml version="1.0" encoding="UTF-8"?>
<svg version="1.1" xmlns="http://www.w3.org/2000/svg" width="512" height="512">
<path d="M0 0 C19.33874095 18.96069038 24.85982024 46.70633768 25.34741211 72.80493164 C25.49875443 91.70397191 24.2748016 111.11346105 19.0625 129.375 C20.18591797 129.75205078 20.18591797 129.75205078 21.33203125 130.13671875 C24.27792149 131.47269473 25.67016999 132.74311551 27.75 135.1875 C28.33136719 135.85394531 28.91273438 136.52039063 29.51171875 137.20703125 C34.13676514 143.6727762 33.7401972 150.7118086 33.0625 158.375 C31.38164417 165.03459333 26.59871678 169.56047447 21.0625 173.375 C17.40767527 175.09859099 14.57107835 175.61531931 10.54296875 175.5703125 C9.0105957 175.56064453 9.0105957 175.56064453 7.44726562 175.55078125 C5.86461914 175.52564453 5.86461914 175.52564453 4.25 175.5 C3.17556641 175.49097656 2.10113281 175.48195312 0.99414062 175.47265625 C-1.64996854 175.44915306 -4.29361872 175.41629575 -6.9375 175.375 C-6.89592773 176.21836914 -6.85435547 177.06173828 -6.81152344 177.93066406 C-6.04181603 196.5915231 -13.84418537 214.41010096 -25.9375 228.375 C-26.61876953 229.02146484 -27.30003906 229.66792969 -28.00195312 230.33398438 C-30.83144457 234.7795123 -30.54039508 238.75515325 -30.546875 243.92578125 C-30.56341125 244.93972458 -30.57994751 245.95366791 -30.59698486 246.99833679 C-30.64546342 250.2281195 -30.66683602 253.45743133 -30.6875 256.6875 C-30.71565972 258.88088306 -30.74558714 261.07424419 -30.77734375 263.26757812 C-30.85122211 268.63663327 -30.90286552 274.00555601 -30.9375 279.375 C-29.60585815 279.78443848 -29.60585815 279.78443848 -28.24731445 280.20214844 C-25.2115358 281.27789386 -22.73526596 282.49455537 -19.98046875 284.140625 C-19.04444824 284.69459961 -18.10842773 285.24857422 -17.14404297 285.81933594 C-16.14775879 286.41520508 -15.15147461 287.01107422 -14.125 287.625 C-11.98668213 288.887121 -9.84732366 290.14748032 -7.70703125 291.40625 C-6.60053223 292.05722656 -5.4940332 292.70820313 -4.35400391 293.37890625 C1.29683529 296.68041127 6.98555563 299.91251822 12.6875 303.125 C13.73526611 303.72086914 14.78303223 304.31673828 15.86254883 304.93066406 C16.84892334 305.48463867 17.83529785 306.03861328 18.8515625 306.609375 C19.71475098 307.09631836 20.57793945 307.58326172 21.46728516 308.08496094 C28.03381593 311.34907652 35.22466518 312.64510401 42.328125 314.2734375 C44.76959991 314.84085048 47.21100396 315.40856842 49.65234375 315.9765625 C53.48050941 316.86409675 57.30917905 317.74923724 61.13916016 318.62890625 C64.84966558 319.48248996 68.5577473 320.34602074 72.265625 321.2109375 C73.39824768 321.46837738 74.53087036 321.72581726 75.69781494 321.99105835 C96.08682706 326.77252881 110.12917629 336.7510671 121.8515625 353.99609375 C140.78048126 391.48605476 129.0625 443.71045603 129.0625 479.375 C-13.4975 479.375 -156.0575 479.375 -302.9375 479.375 C-302.9375 358.26546432 -302.9375 358.26546432 -283.8828125 339.1015625 C-271.9870768 327.77416985 -257.80143839 323.84413158 -242.1640625 320.53515625 C-240.99049698 320.28385452 -239.81693146 320.0325528 -238.60780334 319.77363586 C-233.71128019 318.72892176 -228.81557705 317.68649282 -223.90478516 316.71069336 C-206.32586762 313.18900692 -192.47722022 307.73581706 -177.43029785 297.97158813 C-174.12774286 295.85636643 -170.73904326 293.93433278 -167.30078125 292.05078125 C-166.27275391 291.47779297 -165.24472656 290.90480469 -164.18554688 290.31445312 C-163.21681641 289.77755859 -162.24808594 289.24066406 -161.25 288.6875 C-159.18321814 287.53843575 -157.11679733 286.3887218 -155.05078125 285.23828125 C-154.18235596 284.75657471 -153.31393066 284.27486816 -152.41918945 283.77856445 C-150.67119055 282.78995199 -148.94733206 281.75804023 -147.24291992 280.69604492 C-144.9375 279.375 -144.9375 279.375 -142.9375 279.375 C-142.82600591 273.04292443 -142.79435797 266.71386871 -142.81542969 260.38085938 C-142.81349581 258.23167997 -142.79399672 256.08243562 -142.75585938 253.93359375 C-142.09685571 239.04414801 -142.09685571 239.04414801 -148.734375 226.35546875 C-150.45090751 224.67687066 -152.1830834 223.01396242 -153.9375 221.375 C-162.03813986 210.11287865 -167.13970967 195.39375747 -167 181.5625 C-166.99097656 180.40105469 -166.98195312 179.23960937 -166.97265625 178.04296875 C-166.95525391 176.72232422 -166.95525391 176.72232422 -166.9375 175.375 C-167.59234375 175.39594727 -168.2471875 175.41689453 -168.921875 175.43847656 C-171.92692328 175.52230383 -174.93172464 175.57386895 -177.9375 175.625 C-178.96746094 175.65851563 -179.99742187 175.69203125 -181.05859375 175.7265625 C-188.89887252 175.82643866 -194.22942727 174.62440868 -200.1796875 169.41015625 C-200.71851563 168.75917969 -201.25734375 168.10820312 -201.8125 167.4375 C-202.36679688 166.78910156 -202.92109375 166.14070312 -203.4921875 165.47265625 C-207.95873112 158.99013213 -207.65045005 151.98552701 -206.9375 144.375 C-205.79884335 140.66174531 -204.25342525 137.56907767 -201.32444 134.91130066 C-198.79313672 132.10739935 -199.52700026 128.08897116 -199.55273438 124.48828125 C-199.5473616 123.57892319 -199.54198883 122.66956512 -199.53645325 121.73265076 C-199.52666156 119.75526048 -199.52373528 117.77782717 -199.52680969 115.80041504 C-199.53128454 112.66328471 -199.5172931 109.52671956 -199.49841309 106.38964844 C-199.46157804 99.71810836 -199.44792947 93.04662676 -199.4375 86.375 C-199.42539877 78.6695763 -199.40365073 70.96442616 -199.35749817 63.25912476 C-199.34400074 60.18215985 -199.3480876 57.10554699 -199.35290527 54.02856445 C-199.31018508 38.78108381 -197.84490376 24.98109916 -187.12109375 13.265625 C-178.45583542 5.76296842 -167.92904718 3.0395717 -156.76928711 3.60717773 C-143.75778127 4.22266499 -134.41354599 1.59803665 -122.61328125 -3.52587891 C-85.78279314 -18.65460678 -33.05198697 -27.98831208 0 0 Z " fill="#E5EBFE" transform="translate(342.9375,24.625)"/>
<path d="M0 0 C19.33874095 18.96069038 24.85982024 46.70633768 25.34741211 72.80493164 C25.49875443 91.70397191 24.2748016 111.11346105 19.0625 129.375 C19.81144531 129.62636719 20.56039062 129.87773437 21.33203125 130.13671875 C24.27792149 131.47269473 25.67016999 132.74311551 27.75 135.1875 C28.33136719 135.85394531 28.91273438 136.52039063 29.51171875 137.20703125 C34.13676514 143.6727762 33.7401972 150.7118086 33.0625 158.375 C31.38164417 165.03459333 26.59871678 169.56047447 21.0625 173.375 C17.40767527 175.09859099 14.57107835 175.61531931 10.54296875 175.5703125 C9.52138672 175.56386719 8.49980469 175.55742187 7.44726562 175.55078125 C5.86461914 175.52564453 5.86461914 175.52564453 4.25 175.5 C3.17556641 175.49097656 2.10113281 175.48195312 0.99414062 175.47265625 C-1.64996854 175.44915306 -4.29361872 175.41629575 -6.9375 175.375 C-6.89592773 176.21836914 -6.85435547 177.06173828 -6.81152344 177.93066406 C-6.04181603 196.5915231 -13.84418537 214.41010096 -25.9375 228.375 C-26.6274707 229.03161621 -27.31744141 229.68823242 -28.02832031 230.36474609 C-30.79510202 234.72720369 -30.32132659 238.38488929 -30.125 243.43359375 C-30.10048647 245.44984228 -30.07843208 247.46612192 -30.05859375 249.48242188 C-30.00731797 252.63685899 -29.93840702 255.78734897 -29.82470703 258.94018555 C-29.15464048 279.27462133 -29.15464048 279.27462133 -36.67578125 287.4921875 C-38.21226731 289.04507601 -39.77911565 290.53026092 -41.41014099 291.98329163 C-43.82861585 294.18697242 -45.94875302 296.62081854 -48.125 299.0625 C-48.93582031 299.94550781 -49.74664062 300.82851563 -50.58203125 301.73828125 C-52.91301739 304.3475941 -55.12077187 307.0231282 -57.3125 309.75 C-61.17345318 314.53867338 -65.27311697 319.03175107 -69.47583008 323.51660156 C-73.56000829 327.90051792 -77.36298004 332.44534181 -81.09765625 337.1328125 C-82.6312906 339.00182761 -84.18985051 340.70901638 -85.9375 342.375 C-89.53471356 340.8795292 -91.56847221 338.84793692 -94.125 335.9375 C-95.31222656 334.58785156 -95.31222656 334.58785156 -96.5234375 333.2109375 C-98.80847117 330.52657755 -101.03712313 327.80646731 -103.25 325.0625 C-107.14070708 320.24834412 -111.26750466 315.72575666 -115.49536133 311.21166992 C-119.38776154 307.03218122 -122.99418275 302.6758362 -126.56640625 298.21875 C-129.88233918 294.24181561 -133.4017687 290.46789508 -136.953125 286.70117188 C-143.20726673 280.04273866 -143.20726673 280.04273866 -143.09765625 275.00219727 C-143.08524902 274.12020157 -143.0728418 273.23820587 -143.06005859 272.32948303 C-143.04023926 271.37641769 -143.02041992 270.42335236 -143 269.44140625 C-142.99105555 267.40951447 -142.98462825 265.37761034 -142.98046875 263.34570312 C-142.96629767 260.15207824 -142.93804749 256.96166962 -142.86572266 253.76879883 C-142.14121993 238.97438135 -142.14121993 238.97438135 -148.7265625 226.3671875 C-150.44581219 224.68481384 -152.18061804 223.01803573 -153.9375 221.375 C-162.03804821 210.11271805 -167.13971095 195.39388363 -167 181.5625 C-166.99097656 180.40105469 -166.98195312 179.23960937 -166.97265625 178.04296875 C-166.96105469 177.16253906 -166.94945312 176.28210938 -166.9375 175.375 C-167.59234375 175.39594727 -168.2471875 175.41689453 -168.921875 175.43847656 C-171.92692328 175.52230383 -174.93172464 175.57386895 -177.9375 175.625 C-178.96746094 175.65851563 -179.99742187 175.69203125 -181.05859375 175.7265625 C-188.89887252 175.82643866 -194.22942727 174.62440868 -200.1796875 169.41015625 C-200.98792969 168.43369141 -200.98792969 168.43369141 -201.8125 167.4375 C-202.36679688 166.78910156 -202.92109375 166.14070312 -203.4921875 165.47265625 C-207.95873112 158.99013213 -207.65045005 151.98552701 -206.9375 144.375 C-205.79884335 140.66174531 -204.25342525 137.56907767 -201.32444 134.91130066 C-198.79313672 132.10739935 -199.52700026 128.08897116 -199.55273438 124.48828125 C-199.5473616 123.57892319 -199.54198883 122.66956512 -199.53645325 121.73265076 C-199.52666156 119.75526048 -199.52373528 117.77782717 -199.52680969 115.80041504 C-199.53128454 112.66328471 -199.5172931 109.52671956 -199.49841309 106.38964844 C-199.46157804 99.71810836 -199.44792947 93.04662676 -199.4375 86.375 C-199.42539877 78.6695763 -199.40365073 70.96442616 -199.35749817 63.25912476 C-199.34400074 60.18215985 -199.3480876 57.10554699 -199.35290527 54.02856445 C-199.31018508 38.78108381 -197.84490376 24.98109916 -187.12109375 13.265625 C-178.45583542 5.76296842 -167.92904718 3.0395717 -156.76928711 3.60717773 C-143.75778127 4.22266499 -134.41354599 1.59803665 -122.61328125 -3.52587891 C-85.78279314 -18.65460678 -33.05198697 -27.98831208 0 0 Z " fill="#FEDCD3" transform="translate(342.9375,24.625)"/>
<path d="M0 0 C1.921875 1.36328125 1.921875 1.36328125 3.75 3.3125 C4.4409375 4.04726563 5.131875 4.78203125 5.84375 5.5390625 C8.83398292 8.95182834 11.67663674 12.47277304 14.515625 16.01171875 C17.23705157 19.28513279 20.08956859 22.39563152 23 25.5 C26.64906625 29.39557841 30.15700093 33.33336348 33.5 37.5 C37.38236485 42.33878685 41.50527746 46.89288616 45.75195312 51.41015625 C55 61.26810124 55 61.26810124 55 64 C55.62567871 63.63648438 56.25135742 63.27296875 56.89599609 62.8984375 C59.71977077 61.26116246 62.54731402 59.63050984 65.375 58 C66.35984375 57.42765625 67.3446875 56.8553125 68.359375 56.265625 C69.77089844 55.45351563 69.77089844 55.45351563 71.2109375 54.625 C72.08024902 54.12226563 72.94956055 53.61953125 73.84521484 53.1015625 C76 52 76 52 78 52 C79.13151911 56.40626854 80.23048332 60.81966362 81.31445312 65.23779297 C81.80526022 67.21535404 82.30498082 69.19071128 82.81054688 71.16455078 C83.68445074 74.58436846 84.53113083 78.01016002 85.375 81.4375 C85.66197754 82.53819824 85.94895508 83.63889648 86.24462891 84.77294922 C86.50163574 85.83658691 86.75864258 86.90022461 87.0234375 87.99609375 C87.37801025 89.40652954 87.37801025 89.40652954 87.73974609 90.84545898 C88.48895471 99.92662644 84.1026606 109.10213747 81.24609375 117.58984375 C80.78017131 118.98454759 80.31460633 120.37937089 79.84938049 121.77430725 C78.87962566 124.67899679 77.90695402 127.58268591 76.93188477 130.4855957 C75.68131615 134.20884697 74.43605719 137.93384621 73.19268703 141.6595068 C72.23407411 144.53119601 71.27376413 147.40231511 70.31282234 150.27322578 C69.85283711 151.64748406 69.39313285 153.02183641 68.93371391 154.3962841 C68.29388798 156.3089053 67.65176136 158.22075639 67.00952148 160.13256836 C66.64471176 161.22016953 66.27990204 162.30777069 65.90403748 163.42832947 C65 166 65 166 64 168 C8.56 168 -46.88 168 -104 168 C-104.0825 150.943125 -104.165 133.88625 -104.25 116.3125 C-104.28641602 110.94911377 -104.32283203 105.58572754 -104.36035156 100.05981445 C-104.37841797 93.45349121 -104.37841797 93.45349121 -104.3817749 90.34977722 C-104.38787208 88.20614795 -104.40184563 86.06253142 -104.42230225 83.91899109 C-104.6319235 60.77429483 -104.6319235 60.77429483 -100 50 C-99.49339844 48.78183594 -98.98679687 47.56367188 -98.46484375 46.30859375 C-89.53648335 29.52510297 -76.64965447 18.50369309 -58.3991394 12.70730591 C-50.17332217 10.28219917 -41.78113656 8.42708875 -33.42895508 6.49584961 C-29.91169026 5.68152447 -26.39814433 4.8523988 -22.88476562 4.02148438 C-20.64082844 3.49652545 -18.39669463 2.97240615 -16.15234375 2.44921875 C-15.1065062 2.20241867 -14.06066864 1.95561859 -12.98313904 1.70133972 C-11.51989952 1.36517387 -11.51989952 1.36517387 -10.02709961 1.0222168 C-8.74808022 0.72507027 -8.74808022 0.72507027 -7.44322205 0.42192078 C-4.8881901 -0.01930849 -2.58726768 -0.16728444 0 0 Z " fill="#E5EBFE" transform="translate(144,336)"/>
<path d="M0 0 C19.33874095 18.96069038 24.85982024 46.70633768 25.34741211 72.80493164 C25.49875443 91.70397191 24.2748016 111.11346105 19.0625 129.375 C17.4125 129.045 15.7625 128.715 14.0625 128.375 C3.6675 127.88 3.6675 127.88 -6.9375 127.375 C-6.9375 111.535 -6.9375 95.695 -6.9375 79.375 C-12.2175 80.695 -17.4975 82.015 -22.9375 83.375 C-26.81537577 84.23664554 -30.68858984 85.0803257 -34.578125 85.8828125 C-35.59243591 86.09436981 -36.60674683 86.30592712 -37.65179443 86.52389526 C-39.76526299 86.96392811 -41.87905434 87.40241343 -43.99316406 87.83935547 C-47.19686256 88.50193634 -50.3992628 89.17053867 -53.6015625 89.83984375 C-58.56288773 90.87360371 -63.52752162 91.88927757 -68.496521 92.88549805 C-70.5157757 93.29042948 -72.53370537 93.70196221 -74.55126953 94.11523438 C-82.4631932 95.60759923 -90.2773946 95.67226533 -98.3125 95.625 C-99.61960937 95.63273437 -100.92671875 95.64046875 -102.2734375 95.6484375 C-124.58390129 95.60417071 -146.01179116 90.33785442 -165.9375 80.375 C-166.2675 95.885 -166.5975 111.395 -166.9375 127.375 C-174.1975 127.705 -181.4575 128.035 -188.9375 128.375 C-192.8975 130.355 -192.8975 130.355 -196.9375 132.375 C-197.5975 132.705 -198.2575 133.035 -198.9375 133.375 C-199.0071988 121.17855314 -199.06041201 108.98215414 -199.09293652 96.78554821 C-199.10855146 91.12136456 -199.12971329 85.45731779 -199.16381836 79.79321289 C-199.19656085 74.32077513 -199.21438435 68.84846853 -199.22213173 63.37594032 C-199.22764859 61.294487 -199.2384213 59.21304035 -199.25469017 57.1316433 C-199.37686932 40.84352309 -198.67421294 25.88709715 -187.12109375 13.265625 C-178.45583542 5.76296842 -167.92904718 3.0395717 -156.76928711 3.60717773 C-143.75778127 4.22266499 -134.41354599 1.59803665 -122.61328125 -3.52587891 C-85.78279314 -18.65460678 -33.05198697 -27.98831208 0 0 Z " fill="#494A59" transform="translate(342.9375,24.625)"/>
<path d="M0 0 C2.99760563 1.21226698 4.17026726 3.04749043 6.125 5.609375 C9.62258826 10.05039167 13.25186392 14.24324749 17.125 18.359375 C21.56449811 23.09688208 25.71651126 27.98067889 29.78125 33.046875 C32.93596044 36.83252753 36.29242044 40.40921073 39.66601562 43.99926758 C43.76330417 48.38781075 47.51389378 52.96281146 51.1875 57.71484375 C53.08607691 59.81629279 54.52047489 60.81872769 57.125 61.859375 C62.07519696 56.5164693 66.93931814 51.16639882 71.5 45.484375 C75.36718863 40.6879679 79.47480716 36.1889604 83.68310547 31.69580078 C87.575403 27.51637669 91.1817558 23.16012006 94.75390625 18.703125 C98.06983918 14.72619061 101.5892687 10.95227008 105.140625 7.18554688 C107.36114244 4.82148675 109.32062951 2.56593074 111.125 -0.140625 C115.29085446 0.45504037 118.26519502 1.86207005 121.89453125 3.96484375 C123.02020508 4.61259766 124.14587891 5.26035156 125.30566406 5.92773438 C126.51637959 6.6339371 127.72698933 7.3403212 128.9375 8.046875 C130.1803304 8.76555128 131.42349842 9.483644 132.66699219 10.20117188 C135.86030496 12.04639241 139.04842252 13.90037979 142.23468018 15.75775146 C144.08391031 16.83542912 145.93410494 17.91142945 147.78466797 18.98681641 C154.57220686 22.93166955 161.35266386 26.88847719 168.125 30.859375 C166.26468151 34.87777063 163.59765719 37.75146711 160.5625 40.921875 C156.74199435 44.97977129 153.05301739 49.07137507 149.5625 53.421875 C145.47015012 58.51688774 141.11310283 63.30625167 136.67578125 68.09765625 C133.41847525 71.624326 130.25722812 75.22174753 127.125 78.859375 C126.65352539 79.4044873 126.18205078 79.94959961 125.69628906 80.51123047 C124.06625189 82.39630408 122.43902381 84.28376939 120.8125 86.171875 C120.28406494 86.78337402 119.75562988 87.39487305 119.21118164 88.02490234 C118.71223389 88.60578613 118.21328613 89.18666992 117.69921875 89.78515625 C117.25151123 90.30505127 116.80380371 90.82494629 116.3425293 91.3605957 C115.1800669 92.79158761 114.14767472 94.32536292 113.125 95.859375 C108.04865174 94.0604247 103.48786389 91.36911045 98.8125 88.734375 C97.97654297 88.26644531 97.14058594 87.79851562 96.27929688 87.31640625 C94.22633767 86.1667491 92.17497798 85.01433698 90.125 83.859375 C89.97804688 84.70113281 89.83109375 85.54289062 89.6796875 86.41015625 C88.44728511 93.23086601 87.11192786 100.00238191 85.5546875 106.7578125 C85.14114014 108.55931763 85.14114014 108.55931763 84.71923828 110.3972168 C84.16121396 112.80956658 83.59462563 115.21995307 83.01904297 117.62817383 C82.76010254 118.7498999 82.50116211 119.87162598 82.234375 121.02734375 C81.99686523 122.03047607 81.75935547 123.0336084 81.51464844 124.06713867 C80.80306112 129.16640196 82.64187038 133.64885765 84.25805664 138.45385742 C84.47278122 139.09511063 84.6875058 139.73636383 84.90873718 140.39704895 C85.37283343 141.78175707 85.83831484 143.16600155 86.30504036 144.54982567 C87.04308321 146.73834962 87.77732915 148.9281149 88.51060486 151.11824036 C90.06621016 155.76224944 91.62652391 160.40466888 93.1875 165.046875 C94.99993987 170.43702816 96.81045512 175.82781158 98.61593437 181.22030067 C99.34031727 183.38045842 100.0682951 185.53938309 100.79640198 187.69828796 C101.23822379 189.01649155 101.6798783 190.33475123 102.12133789 191.65307617 C102.50914932 192.80603683 102.89696075 193.9589975 103.29652405 195.14689636 C104.125 197.859375 104.125 197.859375 104.125 199.859375 C72.445 199.859375 40.765 199.859375 8.125 199.859375 C11.49425861 187.50542676 11.49425861 187.50542676 13.33325195 182.27734375 C13.73989578 181.11243408 14.14653961 179.94752441 14.56550598 178.74731445 C14.99377182 177.52616943 15.42203766 176.30502441 15.86328125 175.046875 C16.77757231 172.39963349 17.68641324 169.75052542 18.59570312 167.1015625 C20.01506693 162.96926633 21.44140852 158.8398595 22.89575195 154.71972656 C24.08243135 151.35585859 25.24329756 147.98401655 26.38792992 144.60562134 C27.03382592 142.72133905 27.7061938 140.84619636 28.37922668 138.97143555 C31.00685851 131.14056669 31.36550216 125.7863079 29.125 117.859375 C28.82606964 116.47645413 28.53542161 115.09170139 28.25537109 113.70483398 C27.83118896 111.79939819 27.83118896 111.79939819 27.3984375 109.85546875 C27.24589508 109.16550308 27.09335266 108.47553741 26.93618774 107.7646637 C26.45940365 105.60829719 25.98005491 103.45251553 25.5 101.296875 C24.85960152 98.42109347 24.22191103 95.54473169 23.5859375 92.66796875 C23.30540527 91.40782959 23.02487305 90.14769043 22.73583984 88.84936523 C22.125 85.859375 22.125 85.859375 22.125 83.859375 C21.49932129 84.22289062 20.87364258 84.58640625 20.22900391 84.9609375 C17.40522923 86.59821254 14.57768598 88.22886516 11.75 89.859375 C10.76515625 90.43171875 9.7803125 91.0040625 8.765625 91.59375 C7.82460937 92.13515625 6.88359375 92.6765625 5.9140625 93.234375 C4.61009521 93.98847656 4.61009521 93.98847656 3.27978516 94.7578125 C1.125 95.859375 1.125 95.859375 -0.875 95.859375 C-2.26825954 94.30697159 -3.58880128 92.68907515 -4.875 91.046875 C-8.09245342 87.01990206 -11.37538222 83.14880488 -14.875 79.359375 C-18.13007083 75.8238673 -21.24136881 72.23158713 -24.25 68.484375 C-28.11289324 63.6932954 -32.21447974 59.19773977 -36.41992188 54.71118164 C-40.45264652 50.38348978 -44.1914735 45.86364572 -47.89453125 41.25 C-50.38556776 38.24306835 -53.04411165 35.54508959 -55.875 32.859375 C-54.57870192 28.97048075 -53.2746439 28.692663 -49.71484375 26.77734375 C-48.0750354 25.88329834 -48.0750354 25.88329834 -46.40209961 24.97119141 C-45.81669403 24.6574054 -45.23128845 24.34361938 -44.62814331 24.02032471 C-41.55429069 22.37229124 -38.49681548 20.69434936 -35.4375 19.01953125 C-34.81105087 18.67758728 -34.18460175 18.33564331 -33.53916931 17.9833374 C-24.19905022 12.87035279 -15.04597019 7.43165162 -5.87670898 2.02001953 C-2.11881045 -0.15891078 -2.11881045 -0.15891078 0 0 Z " fill="#D0DBF6" transform="translate(199.875,304.140625)"/>
<path d="M0 0 C3.01588886 1.37297148 5.84888852 2.85071538 8.70141602 4.53686523 C9.74233398 5.14852539 10.78325195 5.76018555 11.85571289 6.39038086 C12.92756836 7.02782227 13.99942383 7.66526367 15.10375977 8.32202148 C16.17948242 8.9555957 17.25520508 9.58916992 18.36352539 10.24194336 C22.93441486 12.93686952 27.49306303 15.65148043 32.04125977 18.38452148 C30.95263762 24.79539225 29.68205413 31.15341493 28.27954102 37.50170898 C28.12363495 38.21248596 27.96772888 38.92326294 27.80709839 39.65557861 C27.15911172 42.60912887 26.51065433 45.56244731 25.84667969 48.51245117 C25.35684355 50.69447014 24.87966324 52.87894572 24.40454102 55.06420898 C23.97588745 56.99369385 23.97588745 56.99369385 23.53857422 58.9621582 C22.74447812 64.42688037 24.43454391 68.8065763 26.17431641 73.97900391 C26.38904099 74.62025711 26.60376556 75.26151031 26.82499695 75.92219543 C27.2890932 77.30690355 27.75457461 78.69114804 28.22130013 80.07497215 C28.95934297 82.2634961 29.69358892 84.45326139 30.42686462 86.64338684 C31.98246993 91.28739593 33.54278367 95.92981537 35.10375977 100.57202148 C36.91619963 105.96217464 38.72671489 111.35295807 40.53219414 116.74544716 C41.25657703 118.9056049 41.98455487 121.06452958 42.71266174 123.22343445 C43.15448355 124.54163804 43.59613807 125.85989772 44.03759766 127.17822266 C44.42540909 128.33118332 44.81322052 129.48414398 45.21278381 130.67204285 C46.04125977 133.38452148 46.04125977 133.38452148 46.04125977 135.38452148 C14.36125977 135.38452148 -17.31874023 135.38452148 -49.95874023 135.38452148 C-46.58948162 123.03057325 -46.58948162 123.03057325 -44.75048828 117.80249023 C-44.34384445 116.63758057 -43.93720062 115.4726709 -43.51823425 114.27246094 C-43.08996841 113.05131592 -42.66170258 111.8301709 -42.22045898 110.57202148 C-41.30616792 107.92477998 -40.397327 105.2756719 -39.48803711 102.62670898 C-38.0686733 98.49441281 -36.64233171 94.36500598 -35.18798828 90.24487305 C-34.00130888 86.88100508 -32.84044267 83.50916304 -31.69581032 80.13076782 C-31.04991432 78.24648554 -30.37754644 76.37134284 -29.70451355 74.49658203 C-27.07849014 66.67050658 -26.70834604 61.30667646 -28.95874023 53.38452148 C-29.26172811 52.01195721 -29.5575797 50.63778605 -29.84423828 49.26171875 C-30.13339111 48.00415771 -30.42254395 46.74659668 -30.72045898 45.45092773 C-31.03791982 44.04672203 -31.35496585 42.6424225 -31.67163086 41.23803711 C-32.16136061 39.07566147 -32.65386206 36.9140572 -33.15332031 34.75390625 C-33.64220088 32.63384088 -34.11972631 30.51147636 -34.59545898 28.38842773 C-34.88122803 27.13876221 -35.16699707 25.88909668 -35.46142578 24.6015625 C-36.21264187 19.74207581 -36.21264187 19.74207581 -34.95874023 17.38452148 C-32.44604492 15.60107422 -32.44604492 15.60107422 -29.13061523 13.81811523 C-28.54459534 13.49794937 -27.95857544 13.17778351 -27.35479736 12.84791565 C-25.47928546 11.82669459 -23.59453462 10.82410538 -21.70874023 9.82202148 C-20.4541628 9.14422591 -19.20024797 8.46520233 -17.94702148 7.78491211 C-15.63168278 6.52822828 -13.31238135 5.28050932 -10.98901367 4.03857422 C-7.96690394 2.47425905 -7.96690394 2.47425905 -5.4362793 0.54492188 C-2.95874023 -0.61547852 -2.95874023 -0.61547852 0 0 Z " fill="#4294FF" transform="translate(257.958740234375,368.615478515625)"/>
<path d="M0 0 C3.48688229 2.05531877 6.6329017 4.24637929 9.8125 6.75 C26.83534238 19.12403402 48.32653318 23.4732202 69.09033203 20.72314453 C82.62247498 18.43807608 95.79296059 12.39805389 106.203125 3.4453125 C108.04945067 1.96022446 109.87283789 1.02506545 112 0 C112.30759933 6.29346362 112.51573072 12.58495509 112.65917969 18.88427734 C112.71904476 21.02043034 112.80057695 23.15610187 112.90527344 25.29052734 C113.84310967 44.9207269 113.84310967 44.9207269 107.90692139 52.35971069 C105.8809939 54.56892699 103.7763938 56.62785787 101.53138733 58.61332703 C99.10528309 60.81016718 96.98832931 63.244147 94.8125 65.6875 C93.59626953 67.01201172 93.59626953 67.01201172 92.35546875 68.36328125 C90.02448261 70.9725941 87.81672813 73.6481282 85.625 76.375 C81.76404682 81.16367338 77.66438303 85.65675107 73.46166992 90.14160156 C69.37749171 94.52551792 65.57451996 99.07034181 61.83984375 103.7578125 C60.3062094 105.62682761 58.74764949 107.33401638 57 109 C53.40278644 107.5045292 51.36902779 105.47293692 48.8125 102.5625 C48.02101562 101.66273438 47.22953125 100.76296875 46.4140625 99.8359375 C44.12902883 97.15157755 41.90037687 94.43146731 39.6875 91.6875 C35.79679292 86.87334412 31.66999534 82.35075666 27.44213867 77.83666992 C23.54973846 73.65718122 19.94331725 69.3008362 16.37109375 64.84375 C13.05516082 60.86681561 9.5357313 57.09289508 5.984375 53.32617188 C-0.25579514 46.68261343 -0.25579514 46.68261343 -0.22705078 41.43676758 C-0.22689972 40.51603958 -0.22674866 39.59531158 -0.22659302 38.64668274 C-0.21627045 37.65597275 -0.20594788 36.66526276 -0.1953125 35.64453125 C-0.1924826 34.62775803 -0.18965271 33.6109848 -0.18673706 32.56340027 C-0.17553383 29.31298092 -0.15042886 26.06283619 -0.125 22.8125 C-0.11497039 20.61003002 -0.10584451 18.40755572 -0.09765625 16.20507812 C-0.07559405 10.80329157 -0.04211508 5.40166541 0 0 Z " fill="#EAC2B9" transform="translate(200,258)"/>
<path d="M0 0 C3.01588886 1.37297148 5.84888852 2.85071538 8.70141602 4.53686523 C9.74233398 5.14852539 10.78325195 5.76018555 11.85571289 6.39038086 C12.92756836 7.02782227 13.99942383 7.66526367 15.10375977 8.32202148 C16.71734375 9.27238281 16.71734375 9.27238281 18.36352539 10.24194336 C22.93441486 12.93686952 27.49306303 15.65148043 32.04125977 18.38452148 C30.54131793 27.05111271 28.77696942 35.65532784 26.95458984 44.25854492 C26.47245929 46.53932671 25.99608522 48.82126791 25.51977539 51.10327148 C25.21348412 52.55386613 24.90685637 54.00438977 24.59985352 55.45483398 C24.45817245 56.13699982 24.31649139 56.81916565 24.17051697 57.52200317 C23.15560939 62.27017186 23.15560939 62.27017186 22.04125977 63.38452148 C20.53707237 63.47764038 19.02854621 63.50198176 17.52148438 63.49804688 C16.08010353 63.49793358 16.08010353 63.49793358 14.60960388 63.49781799 C13.56482376 63.49265671 12.52004364 63.48749542 11.44360352 63.48217773 C10.37960831 63.48076279 9.3156131 63.47934784 8.21937561 63.47789001 C4.80580893 63.47227212 1.39230677 63.45971659 -2.02124023 63.44702148 C-4.329182 63.44200879 -6.63712479 63.43744548 -8.94506836 63.43334961 C-14.6163145 63.42229688 -20.28752276 63.40554135 -25.95874023 63.38452148 C-28.44918821 53.48044192 -30.92198009 43.57324611 -33.27124023 33.63452148 C-33.54774414 32.50014648 -33.82424805 31.36577148 -34.10913086 30.19702148 C-34.36500977 29.10905273 -34.62088867 28.02108398 -34.88452148 26.90014648 C-35.1156665 25.93367188 -35.34681152 24.96719727 -35.58496094 23.97143555 C-36.18066925 19.84855816 -36.18066925 19.84855816 -34.95874023 17.38452148 C-32.44604492 15.60107422 -32.44604492 15.60107422 -29.13061523 13.81811523 C-28.54459534 13.49794937 -27.95857544 13.17778351 -27.35479736 12.84791565 C-25.47928546 11.82669459 -23.59453462 10.82410538 -21.70874023 9.82202148 C-20.4541628 9.14422591 -19.20024797 8.46520233 -17.94702148 7.78491211 C-15.63168278 6.52822828 -13.31238135 5.28050932 -10.98901367 4.03857422 C-7.96690394 2.47425905 -7.96690394 2.47425905 -5.4362793 0.54492188 C-2.95874023 -0.61547852 -2.95874023 -0.61547852 0 0 Z " fill="#376CFB" transform="translate(257.958740234375,368.615478515625)"/>
<path d="M0 0 C25.61881188 0 25.61881188 0 32.3046875 4.578125 C39.21321442 11.93347207 40.60641677 17.55920263 40.33984375 27.625 C39.55283545 35.44080654 35.93406071 39.56531589 30.09765625 44.5546875 C20.61481324 51.08848995 12.85589381 48 0 48 C0 32.16 0 16.32 0 0 Z " fill="#E9C1B8" transform="translate(336,152)"/>
<path d="M0 0 C0 15.84 0 31.68 0 48 C-26.43538767 48 -26.43538767 48 -33.2421875 42.03515625 C-33.78101563 41.38417969 -34.31984375 40.73320312 -34.875 40.0625 C-35.42929688 39.41410156 -35.98359375 38.76570313 -36.5546875 38.09765625 C-41.03690722 31.5923806 -40.66631746 24.63236365 -40 17 C-38.30359584 9.87282547 -33.0173782 5.75451928 -27 2 C-22 0 -22 0 0 0 Z " fill="#E9C1B8" transform="translate(176,152)"/>
<path d="M0 0 C4.22891198 0.88102333 5.43247843 2.13074145 8 5.625 C8.69750101 9.5102386 8.58149477 13.33330149 8.48828125 17.26953125 C8.48120651 18.3944548 8.47413177 19.51937836 8.46684265 20.6783905 C8.43889144 24.26544149 8.37614717 27.85092212 8.3125 31.4375 C8.28741827 33.87172222 8.26460489 36.30596895 8.24414062 38.74023438 C8.18906162 44.70242644 8.10277994 50.66344713 8 56.625 C2.72 56.625 -2.56 56.625 -8 56.625 C-8.12364115 49.4534331 -8.21436178 42.28248719 -8.2746582 35.11010742 C-8.29979496 32.67054436 -8.33390946 30.23105655 -8.37719727 27.79174805 C-8.43788229 24.28415354 -8.466219 20.7775551 -8.48828125 17.26953125 C-8.51408768 16.17977493 -8.5398941 15.09001862 -8.56648254 13.96723938 C-8.56928253 6.39976286 -8.56928253 6.39976286 -5.65698242 2.4362793 C-3 0.625 -3 0.625 0 0 Z " fill="#D0DBF7" transform="translate(400,447.375)"/>
<path d="M0 0 C4.22891198 0.88102333 5.43247843 2.13074145 8 5.625 C8.69750101 9.5102386 8.58149477 13.33330149 8.48828125 17.26953125 C8.48120651 18.3944548 8.47413177 19.51937836 8.46684265 20.6783905 C8.43889144 24.26544149 8.37614717 27.85092212 8.3125 31.4375 C8.28741827 33.87172222 8.26460489 36.30596895 8.24414062 38.74023438 C8.18906162 44.70242644 8.10277994 50.66344713 8 56.625 C2.72 56.625 -2.56 56.625 -8 56.625 C-8.12364115 49.4534331 -8.21436178 42.28248719 -8.2746582 35.11010742 C-8.29979496 32.67054436 -8.33390946 30.23105655 -8.37719727 27.79174805 C-8.43788229 24.28415354 -8.466219 20.7775551 -8.48828125 17.26953125 C-8.51408768 16.17977493 -8.5398941 15.09001862 -8.56648254 13.96723938 C-8.56928253 6.39976286 -8.56928253 6.39976286 -5.65698242 2.4362793 C-3 0.625 -3 0.625 0 0 Z " fill="#D0DBF7" transform="translate(112,447.375)"/>
</svg>
