<?xml version="1.0" encoding="UTF-8"?>
<svg version="1.1" xmlns="http://www.w3.org/2000/svg" width="512" height="512">
<path d="M0 0 C0.68835938 0.20898926 1.37671875 0.41797852 2.0859375 0.63330078 C16.11058964 4.98341942 28.76970701 11.73244884 36.1015625 24.9921875 C38.58395729 30.53980021 38.08518109 36.21236752 37 42 C38.155 41.87625 39.31 41.7525 40.5 41.625 C45.99409758 41.625 49.12331079 44.36508281 53 48 C64.47192191 59.99337291 66.20294217 76.59673318 66.1875 92.51171875 C66.1862915 93.85854988 66.1862915 93.85854988 66.18505859 95.23258972 C66.08675077 106.47178815 65.03402305 117.62822214 64 128.8125 C63.80644664 130.98104454 63.61373428 133.1496643 63.421875 135.31835938 C62.95755832 140.54648666 62.48204379 145.77347864 62 151 C63.27375488 150.98485352 64.54750977 150.96970703 65.85986328 150.95410156 C70.77634033 150.89563871 73.00196901 152.12141769 77 155 C82.07482764 163.05172301 78.17527979 174.50464369 76.3125 183.0625 C75.94608398 184.88491211 75.94608398 184.88491211 75.57226562 186.74414062 C73.29735907 197.36996999 69.70388912 206.11910203 61 213 C57.46660481 215.14086007 53.91396714 216.69534429 50 218 C49.92483154 218.58378418 49.84966309 219.16756836 49.7722168 219.76904297 C49.41917604 222.47221973 49.05339925 225.17353489 48.6875 227.875 C48.56955078 228.7928125 48.45160156 229.710625 48.33007812 230.65625 C47.45952225 236.99568254 46.01751151 242.92848683 44 249 C45.155 249.185625 46.31 249.37125 47.5 249.5625 C66.41731523 253.7995012 85.31551314 265.58531762 95.875 281.875 C102.67892457 292.81566315 107.39384457 304.38104085 107.25 317.375 C107.25773437 318.0659375 107.26546875 318.756875 107.2734375 319.46875 C107.25845792 323.52821563 106.81138797 327.29832243 105.98339844 331.27587891 C105.80017029 332.16417389 105.61694214 333.05246887 105.42816162 333.96768188 C105.21622162 334.97367935 105.21622162 334.97367935 105 336 C105.55106918 336.23279663 106.10213837 336.46559326 106.66990662 336.70544434 C112.49726647 339.16799279 118.32254413 341.63541967 124.14672852 344.10546875 C126.30962839 345.0220415 128.4730257 345.93744145 130.63696289 346.8515625 C141.03408178 351.2445078 151.42807697 355.63841615 161.66015625 360.40625 C162.32615341 360.71381226 162.99215057 361.02137451 163.67832947 361.33825684 C169.69192544 364.18517664 174.87583598 367.78790401 180 372 C180.77601563 372.61359375 181.55203125 373.2271875 182.3515625 373.859375 C200.34263871 388.82102601 208.2682249 409.60934942 212 432 C212 457.08 212 482.16 212 508 C51.62 508 -108.76 508 -274 508 C-274 404.23811475 -274 404.23811475 -246.375 374.9375 C-234.23130014 363.19675851 -219.37070877 357.34369663 -204 351 C-201.78907108 350.07850695 -199.57901828 349.15493007 -197.368927 348.23143005 C-193.47748966 346.60689988 -189.58270443 344.99047241 -185.6875 343.375 C-184.53973083 342.89808212 -184.53973083 342.89808212 -183.36877441 342.41152954 C-181.18885681 341.50739181 -179.00691686 340.60833852 -176.82421875 339.7109375 C-176.16381088 339.43645279 -175.50340302 339.16196808 -174.82298279 338.87916565 C-170.22973342 337 -170.22973342 337 -168 337 C-168.2165625 336.319375 -168.433125 335.63875 -168.65625 334.9375 C-173.22462048 319.03280278 -171.84101193 304.03795493 -164.25 289.25 C-151.22431867 267.01819804 -131.07164946 257.52958177 -107 251 C-106.34 251 -105.68 251 -105 251 C-105.25394531 250.37738281 -105.50789062 249.75476563 -105.76953125 249.11328125 C-107.7090412 243.90493432 -109.06120796 239.19557586 -109.6171875 233.66796875 C-109.71539795 232.7349292 -109.8136084 231.80188965 -109.91479492 230.84057617 C-110.0946093 228.96757676 -110.23885741 227.09077471 -110.3449707 225.2121582 C-110.60785455 222.53823283 -110.89450995 220.45286852 -112 218 C-114.81289108 215.97186101 -117.73071158 215.06380489 -121 214 C-127.97920742 210.32985377 -132.54670696 204.36401857 -135.02856445 196.91137695 C-135.88145421 193.53748578 -136.62152 190.16063108 -137.3125 186.75 C-137.56322266 185.59242188 -137.81394531 184.43484375 -138.07226562 183.2421875 C-138.73493684 180.16511901 -139.37554864 177.08502011 -140 174 C-140.27831665 172.65856934 -140.27831665 172.65856934 -140.56225586 171.29003906 C-141.54293351 166.1596674 -141.75380295 160.96826325 -139.875 156.0625 C-137.43917821 153.38309603 -135.40495873 152.24411954 -132 151 C-129.66713516 150.95324427 -127.33274231 150.94748566 -125 151 C-125.13631836 149.48092041 -125.13631836 149.48092041 -125.27539062 147.93115234 C-133.41428248 55.79346247 -133.41428248 55.79346247 -111.4375 27.5 C-84.71455612 -1.99935364 -37.05373324 -11.80544968 0 0 Z " fill="#1E648C" transform="translate(287,4)"/>
<path d="M0 0 C0.68835938 0.20898926 1.37671875 0.41797852 2.0859375 0.63330078 C16.11058964 4.98341942 28.76970701 11.73244884 36.1015625 24.9921875 C38.58395729 30.53980021 38.08518109 36.21236752 37 42 C38.155 41.87625 39.31 41.7525 40.5 41.625 C45.99409758 41.625 49.12331079 44.36508281 53 48 C64.47192191 59.99337291 66.20294217 76.59673318 66.1875 92.51171875 C66.18669434 93.40960617 66.18588867 94.30749359 66.18505859 95.23258972 C66.08675077 106.47178815 65.03402305 117.62822214 64 128.8125 C63.80644664 130.98104454 63.61373428 133.1496643 63.421875 135.31835938 C62.95755832 140.54648666 62.48204379 145.77347864 62 151 C63.27375488 150.98485352 64.54750977 150.96970703 65.85986328 150.95410156 C70.77634033 150.89563871 73.00196901 152.12141769 77 155 C82.07482764 163.05172301 78.17527979 174.50464369 76.3125 183.0625 C76.06822266 184.27744141 75.82394531 185.49238281 75.57226562 186.74414062 C73.29735907 197.36996999 69.70388912 206.11910203 61 213 C57.46660481 215.14086007 53.91396714 216.69534429 50 218 C49.88724731 218.87567627 49.88724731 218.87567627 49.7722168 219.76904297 C49.41917604 222.47221973 49.05339925 225.17353489 48.6875 227.875 C48.56955078 228.7928125 48.45160156 229.710625 48.33007812 230.65625 C47.45952225 236.99568254 46.01751151 242.92848683 44 249 C43.34 249 42.68 249 42 249 C41.855625 249.804375 41.71125 250.60875 41.5625 251.4375 C41 254 41 254 40 255 C39.84180763 256.62593913 39.74881178 258.25831085 39.68359375 259.890625 C39.64129639 260.90423096 39.59899902 261.91783691 39.55541992 262.9621582 C39.49704956 264.58963989 39.49704956 264.58963989 39.4375 266.25 C39.37816284 267.89585083 39.37816284 267.89585083 39.31762695 269.57495117 C39.24215222 271.74762582 39.16941498 273.92039754 39.09960938 276.09326172 C39.019533 278.43000034 38.91658189 280.76276114 38.796875 283.09765625 C38.44570636 293.41950594 40.98326113 301.39853289 48 309 C48 309.66 48 310.32 48 311 C48.87785156 311.42152344 48.87785156 311.42152344 49.7734375 311.8515625 C51.83499732 312.91489336 53.69841959 314.08788032 55.625 315.375 C60.16184617 318.25974936 64.96728605 320.15398402 70 322 C69.41630936 325.33869223 68.39772928 326.97843093 66.0078125 329.35546875 C65.08295044 330.28178101 65.08295044 330.28178101 64.1394043 331.22680664 C63.47465088 331.87383545 62.80989746 332.52086426 62.125 333.1875 C61.44026611 333.86095459 60.75553223 334.53440918 60.05004883 335.22827148 C54.62440194 340.509082 48.99315357 345.37101694 43 350 C41.62700776 351.07736537 40.25466448 352.15555807 38.8828125 353.234375 C19.49649902 368.43866646 -0.35843625 382.97258451 -20.51928711 397.13085938 C-21.51134155 397.82791992 -21.51134155 397.82791992 -22.5234375 398.5390625 C-23.44527832 399.17763184 -23.44527832 399.17763184 -24.38574219 399.82910156 C-26.14769934 401.06260623 -26.14769934 401.06260623 -28.1640625 402.9609375 C-30 404 -30 404 -32.234375 403.5546875 C-36.12993561 401.36481021 -39.66370675 398.7848053 -43.25 396.125 C-44.87045981 394.93793621 -46.4915685 393.75175776 -48.11328125 392.56640625 C-49.34038818 391.66752686 -49.34038818 391.66752686 -50.59228516 390.75048828 C-54.17702833 388.1442615 -57.80671724 385.60396216 -61.4375 383.0625 C-75.41674523 373.23033289 -89.14717395 363.11367767 -102.38769531 352.30371094 C-103.83438712 351.13391472 -105.30264504 349.99090877 -106.7734375 348.8515625 C-113.80391117 343.34119124 -120.00724482 337.14054826 -126.25146484 330.76293945 C-126.95223145 330.048396 -127.65299805 329.33385254 -128.375 328.59765625 C-129.00148437 327.95320557 -129.62796875 327.30875488 -130.2734375 326.64477539 C-132.10441446 324.80596808 -132.10441446 324.80596808 -135 323 C-133.88882813 322.59910156 -132.77765625 322.19820313 -131.6328125 321.78515625 C-120.21080537 317.48889921 -109.91230579 312.35162712 -104 301 C-100.53849656 293.06702828 -100.4742841 285.31633393 -100.49902344 276.80688477 C-100.49999963 274.43839278 -100.45820098 272.07310746 -100.4140625 269.70507812 C-100.26099909 259.51644604 -100.26099909 259.51644604 -104.76611328 250.60180664 C-106.76911944 248.00154479 -107.38402719 245.14371892 -108.1875 242 C-108.35419189 241.36989014 -108.52088379 240.73978027 -108.69262695 240.09057617 C-109.74501172 235.86909587 -110.22348752 231.77403378 -110.52734375 227.44067383 C-110.7426345 221.26993358 -110.7426345 221.26993358 -113.875 216.28125 C-116.22533999 215.29664811 -118.53820857 214.64783985 -121 214 C-127.97837315 210.39825902 -132.56497706 204.30915622 -135.02856445 196.91137695 C-135.88145421 193.53748578 -136.62152 190.16063108 -137.3125 186.75 C-137.56322266 185.59242188 -137.81394531 184.43484375 -138.07226562 183.2421875 C-138.73493684 180.16511901 -139.37554864 177.08502011 -140 174 C-140.18554443 173.10571289 -140.37108887 172.21142578 -140.56225586 171.29003906 C-141.54293351 166.1596674 -141.75380295 160.96826325 -139.875 156.0625 C-137.43917821 153.38309603 -135.40495873 152.24411954 -132 151 C-129.66713516 150.95324427 -127.33274231 150.94748566 -125 151 C-125.13631836 149.48092041 -125.13631836 149.48092041 -125.27539062 147.93115234 C-133.41428248 55.79346247 -133.41428248 55.79346247 -111.4375 27.5 C-84.71455612 -1.99935364 -37.05373324 -11.80544968 0 0 Z " fill="#EFC7A9" transform="translate(287,4)"/>
<path d="M0 0 C0.33 0 0.66 0 1 0 C0.97905273 1.00264893 0.95810547 2.00529785 0.93652344 3.03833008 C0.86335066 6.80852606 0.817924 10.57866123 0.78027344 14.34936523 C0.76033187 15.97186893 0.73316826 17.59430242 0.69824219 19.21655273 C0.43284812 31.87350792 1.01698504 42.26840046 10 52 C10 52.66 10 53.32 10 54 C10.58523438 54.28101563 11.17046875 54.56203125 11.7734375 54.8515625 C13.83499732 55.91489336 15.69841959 57.08788032 17.625 58.375 C22.16184617 61.25974936 26.96728605 63.15398402 32 65 C31.41630936 68.33869223 30.39772928 69.97843093 28.0078125 72.35546875 C27.39123779 72.97301025 26.77466309 73.59055176 26.1394043 74.22680664 C25.47465088 74.87383545 24.80989746 75.52086426 24.125 76.1875 C23.44026611 76.86095459 22.75553223 77.53440918 22.05004883 78.22827148 C16.62440194 83.509082 10.99315357 88.37101694 5 93 C3.62700776 94.07736537 2.25466448 95.15555807 0.8828125 96.234375 C-18.50350098 111.43866646 -38.35843625 125.97258451 -58.51928711 140.13085938 C-59.18065674 140.59556641 -59.84202637 141.06027344 -60.5234375 141.5390625 C-61.44527832 142.17763184 -61.44527832 142.17763184 -62.38574219 142.82910156 C-64.14769934 144.06260623 -64.14769934 144.06260623 -66.1640625 145.9609375 C-68 147 -68 147 -70.234375 146.5546875 C-74.12993561 144.36481021 -77.66370675 141.7848053 -81.25 139.125 C-82.87045981 137.93793621 -84.4915685 136.75175776 -86.11328125 135.56640625 C-86.93135254 134.96715332 -87.74942383 134.36790039 -88.59228516 133.75048828 C-92.17702833 131.1442615 -95.80671724 128.60396216 -99.4375 126.0625 C-113.41674523 116.23033289 -127.14717395 106.11367767 -140.38769531 95.30371094 C-141.83438712 94.13391472 -143.30264504 92.99090877 -144.7734375 91.8515625 C-151.80391117 86.34119124 -158.00724482 80.14054826 -164.25146484 73.76293945 C-164.95223145 73.048396 -165.65299805 72.33385254 -166.375 71.59765625 C-167.00148437 70.95320557 -167.62796875 70.30875488 -168.2734375 69.64477539 C-170.10441446 67.80596808 -170.10441446 67.80596808 -173 66 C-171.88882813 65.59910156 -170.77765625 65.19820313 -169.6328125 64.78515625 C-158.21080537 60.48889921 -147.91230579 55.35162712 -142 44 C-138.34831262 35.49468793 -138.44758797 27.03115575 -138.3125 17.9375 C-138.2792697 16.388644 -138.24477492 14.83981458 -138.20898438 13.29101562 C-138.12473693 9.52749194 -138.05762395 5.7640216 -138 2 C-134.66423728 5.32239293 -131.36404838 8.6754754 -128.0859375 12.0546875 C-126.66810598 13.50207091 -125.24830782 14.94749366 -123.82763672 16.39208984 C-122.86625575 17.37350632 -121.90850506 18.35849338 -120.95458984 19.34716797 C-108.98124704 31.74295317 -96.81291472 40.07817088 -79.19140625 40.53125 C-76.79365493 40.55253337 -74.39844235 40.54656855 -72.00073242 40.52148438 C-69.56913206 40.50005844 -67.14049487 40.5213705 -64.70898438 40.546875 C-46.20173512 40.58833885 -32.76355743 35.1683908 -19.54232788 22.01040649 C-18.54616838 21.00163453 -17.55314655 19.98975482 -16.56323242 18.97485352 C-15.05043567 17.42514128 -13.52183334 15.89243956 -11.99023438 14.36132812 C-6.46182197 8.85507968 -6.46182197 8.85507968 -1.74780273 2.66430664 C-1.17102783 1.78508545 -0.59425293 0.90586426 0 0 Z " fill="#EFB395" transform="translate(325,261)"/>
<path d="M0 0 C0.68835938 0.20898926 1.37671875 0.41797852 2.0859375 0.63330078 C16.11058964 4.98341942 28.76970701 11.73244884 36.1015625 24.9921875 C38.58395729 30.53980021 38.08518109 36.21236752 37 42 C38.155 41.87625 39.31 41.7525 40.5 41.625 C45.99409758 41.625 49.12331079 44.36508281 53 48 C64.48044969 60.00228831 66.2078418 76.60638586 66.1640625 92.53125 C66.16099594 93.87962952 66.16099594 93.87962952 66.15786743 95.25524902 C66.07265018 105.32881403 65.43657136 115.35200657 64.62060547 125.39013672 C64.37091756 128.551692 64.16036859 131.7145711 63.94921875 134.87890625 C63.78884481 136.9090441 63.62617316 138.93900207 63.4609375 140.96875 C63.37614639 142.37332458 63.37614639 142.37332458 63.28964233 143.80627441 C62.88660856 148.22389565 62.51587849 151.10478733 59.09619141 154.12695312 C56 156 56 156 53 156 C47.57509558 138.63207244 43.25825303 121.48760743 41.234375 103.3828125 C41.1096582 102.26769287 40.98494141 101.15257324 40.85644531 100.00366211 C40.62578642 97.85774446 40.41055468 95.7100886 40.21386719 93.56079102 C39.27416757 84.43750105 36.78301897 76.48810511 30 70 C20.02285543 64.01371326 10.07739739 62.07420243 -1.45703125 64.82421875 C-3.54078296 65.48914071 -5.61453371 66.18706431 -7.671875 66.9296875 C-15.52662576 69.45574584 -23.14676916 70.36199884 -31.375 70.3125 C-32.2925708 70.31048584 -33.2101416 70.30847168 -34.15551758 70.30639648 C-40.21766418 70.21692424 -45.63828468 69.47041243 -51.46875 67.734375 C-55.62753399 66.52781421 -59.68908622 66.21000392 -64 66 C-65.31355469 65.91234375 -66.62710938 65.8246875 -67.98046875 65.734375 C-78.35578264 65.23597709 -86.4075812 66.51135774 -94.703125 73.41796875 C-101.05061174 80.24342889 -102.56627009 89.03302421 -103.3125 97.9375 C-104.4062667 108.71950294 -106.27796861 119.21862371 -108.5 129.8125 C-108.64966217 130.53098114 -108.79932434 131.24946228 -108.95352173 131.98971558 C-110.77712539 140.70880887 -112.76341175 149.37623185 -115 158 C-119.46177013 156.59772939 -122.10118339 154.68139998 -125 151 C-125.6482037 148.2038824 -125.99019951 145.91939367 -126.14453125 143.09765625 C-126.20431656 142.31983795 -126.26410187 141.54201965 -126.32569885 140.7406311 C-126.51349498 138.18229349 -126.6648858 135.62344919 -126.8125 133.0625 C-126.92959519 131.27252561 -127.0469491 129.48256813 -127.16455078 127.69262695 C-131.76807189 53.67408956 -131.76807189 53.67408956 -111.4375 27.5 C-84.71455612 -1.99935364 -37.05373324 -11.80544968 0 0 Z " fill="#6B4C38" transform="translate(287,4)"/>
<path d="M0 0 C3.28340468 3.95944082 3.45418162 7.81170964 3.43359375 12.7578125 C3.4388356 13.50151093 3.44407745 14.24520935 3.44947815 15.01144409 C3.4558842 16.58313759 3.45457968 18.15487912 3.44604492 19.7265625 C3.43759884 22.09725655 3.46620719 24.46548511 3.49804688 26.8359375 C3.55143379 37.87925762 2.75350575 47.97947714 -5.3125 56.375 C-6.03050781 57.14585937 -6.74851563 57.91671875 -7.48828125 58.7109375 C-14.64249058 65.23094787 -22.39816956 68.43215235 -31.3125 71.875 C-32.65739433 72.40247835 -34.00195676 72.9308037 -35.34619141 73.45996094 C-39.22649863 74.98448052 -43.11301114 76.49260048 -47 78 C-48.99114605 78.77797911 -50.98206319 79.55654455 -52.97265625 80.3359375 C-56.97761514 81.90155054 -60.98680496 83.45562684 -65 85 C-70.26309839 68.45883363 -69.21931791 52.77492807 -61.25 37.25 C-49.97322007 18.00316508 -34.26920869 8.93719209 -13.75 1.9375 C-12.84475586 1.62611084 -11.93951172 1.31472168 -11.00683594 0.99389648 C-10.15379883 0.71618408 -9.30076172 0.43847168 -8.421875 0.15234375 C-7.66487305 -0.09523682 -6.90787109 -0.34281738 -6.12792969 -0.59790039 C-3.59883116 -1.075806 -2.3456836 -1.08564278 0 0 Z " fill="#1D638C" transform="translate(184,256)"/>
<path d="M0 0 C18.8758135 1.76895716 38.30112863 13.15394608 50.3125 27.6484375 C61.87783661 43.76494823 66.86187717 60.32773624 64.65625 80.078125 C64.1875 82.5 64.1875 82.5 63 86 C59.04702077 87.31765974 57.75867883 86.33185059 53.9609375 84.71875 C52.74817139 84.20973145 51.53540527 83.70071289 50.28588867 83.17626953 C48.98209679 82.61789188 47.67847021 82.05912813 46.375 81.5 C45.05153669 80.93911829 43.72772356 80.3790613 42.40356445 79.81982422 C40.42973233 78.98599806 38.45625417 78.15142908 36.48439026 77.31295776 C32.11258642 75.4562786 27.71426151 73.68523181 23.29101562 71.95581055 C11.30318884 67.2210642 3.81142959 61.55461195 -2.1015625 49.8125 C-4.37672801 44.02890171 -4.33249486 38.38211425 -4.08251953 32.24121094 C-3.98186922 29.50757228 -3.92876455 26.77393986 -3.87109375 24.0390625 C-3.81159196 21.88016092 -3.75037941 19.72130585 -3.6875 17.5625 C-3.66526367 16.51956787 -3.64302734 15.47663574 -3.62011719 14.40209961 C-3.41971409 8.81292956 -3.03987648 4.75133508 0 0 Z " fill="#1D638B" transform="translate(329,253)"/>
<path d="M0 0 C3.12074387 2.26963191 5.6562671 4.68631554 8.125 7.625 C15.99163264 16.77736184 25.51054734 24.14323337 35.02978516 31.47558594 C37.1160294 33.08977541 39.18971925 34.71913455 41.26171875 36.3515625 C50.93055703 43.95343832 60.76947643 51.26521091 70.78076172 58.40869141 C72.94746596 59.96233038 75.1024919 61.53074263 77.25390625 63.10546875 C81.81158158 66.43821369 86.39827699 69.72838271 91 73 C92.03833984 73.74024414 93.07667969 74.48048828 94.14648438 75.24316406 C96.96164912 77.24482553 99.78996118 79.22678679 102.62643433 81.19812012 C103.74395581 81.97815412 104.8578945 82.76334815 105.9680481 83.55383301 C107.5272141 84.66218382 109.10125962 85.74951135 110.67578125 86.8359375 C111.58239502 87.47063965 112.48900879 88.1053418 113.4230957 88.75927734 C115.90775966 90.20924501 115.90775966 90.20924501 118.55249023 89.86889648 C121.17180814 88.93900597 123.18376938 87.82007321 125.484375 86.26171875 C126.32822754 85.69517578 127.17208008 85.12863281 128.04150391 84.54492188 C128.93530762 83.93197266 129.82911133 83.31902344 130.75 82.6875 C131.68376465 82.05521484 132.6175293 81.42292969 133.57958984 80.77148438 C136.39429021 78.85888852 139.19917301 76.93284393 142 75 C142.77053711 74.46842285 143.54107422 73.9368457 144.33496094 73.38916016 C171.29068881 54.71295305 197.45029654 34.88690516 222.28710938 13.47509766 C225.18676532 10.97798802 228.09351658 8.48915627 231 6 C226.95598468 14.44521664 219.75624613 21.41677136 213.48339844 28.28100586 C211.86369128 30.05437183 210.2492475 31.83256378 208.64086914 33.61621094 C201.84494819 41.11344849 194.81386702 48.34144659 187.64672852 55.48364258 C185.80041754 57.32454708 183.95957727 59.17080272 182.11914062 61.01757812 C176.75305096 66.38637279 171.39215258 71.68669077 165.6081543 76.61010742 C163.28157899 78.62091556 161.14426773 80.79777908 159 83 C155.41510388 86.62881522 151.737064 90.0406286 147.86328125 93.35546875 C145.99548207 95.00398752 144.24544376 96.72303581 142.5 98.5 C140.18980559 100.851726 137.82217812 103.05039265 135.3125 105.1875 C129.56434567 110.13068597 124.31705256 115.60319165 119 121 C115.0169879 119.32752162 111.97358394 116.61520192 108.75 113.8125 C108.14446289 113.29002686 107.53892578 112.76755371 106.91503906 112.22924805 C100.69201789 106.81306172 94.69871911 101.15740179 88.70703125 95.48828125 C85.65947867 92.60818513 82.56856157 89.7889729 79.4375 87 C76.10747667 84.03133146 72.9323917 80.96470028 69.81126404 77.77882385 C68.02437418 76.02393764 66.1766043 74.39305786 64.27368164 72.76538086 C60.09527552 69.12981143 56.15532573 65.30015367 52.24609375 61.37890625 C51.54154556 60.67531479 50.83699738 59.97172333 50.11109924 59.24681091 C48.63346633 57.76985352 47.15707543 56.29165258 45.68188477 54.81225586 C43.44333519 52.56834915 41.19949527 50.32983296 38.95507812 48.09179688 C37.51009596 46.64615382 36.06542408 45.20020055 34.62109375 43.75390625 C33.96048447 43.0953212 33.29987518 42.43673615 32.61924744 41.75819397 C28.21567131 37.33273542 24.06103346 32.74069145 20 28 C19.16855469 27.03835938 18.33710938 26.07671875 17.48046875 25.0859375 C12.89088712 19.65975411 8.52761893 14.14082904 4.375 8.375 C3.93696045 7.77091309 3.4989209 7.16682617 3.04760742 6.54443359 C0 2.24720274 0 2.24720274 0 0 Z " fill="#00466E" transform="translate(138,341)"/>
<path d="M0 0 C0.33 0 0.66 0 1 0 C1.0294191 3.47914843 1.04693792 6.95826417 1.0625 10.4375 C1.07087891 11.41138672 1.07925781 12.38527344 1.08789062 13.38867188 C1.10782078 19.34778969 0.77609518 25.09067683 0 31 C-0.33 31 -0.66 31 -1 31 C-1.33 29.02 -1.66 27.04 -2 25 C-2.37769531 25.44988281 -2.75539063 25.89976562 -3.14453125 26.36328125 C-15.9072274 41.2780011 -31.38302236 59.05651234 -52.10684204 61.21994019 C-56.71214105 61.49580828 -61.31063758 61.48467615 -65.92211914 61.41162109 C-68.32676197 61.3747815 -70.72986778 61.3706055 -73.13476562 61.37109375 C-74.69011729 61.36126995 -76.24545871 61.34961617 -77.80078125 61.3359375 C-78.50616531 61.33371185 -79.21154938 61.33148621 -79.93830872 61.32919312 C-84.89814322 61.23587606 -89.22071611 60.33777663 -94 59 C-94.81726563 58.78601563 -95.63453125 58.57203125 -96.4765625 58.3515625 C-112.20611529 53.03211374 -124.75136769 36.49826054 -136 25 C-136.33 26.98 -136.66 28.96 -137 31 C-137.33 31 -137.66 31 -138 31 C-138 21.43 -138 11.86 -138 2 C-134.66905306 5.33094694 -131.36516361 8.67432578 -128.0859375 12.0546875 C-126.66810598 13.50207091 -125.24830782 14.94749366 -123.82763672 16.39208984 C-122.86625575 17.37350632 -121.90850506 18.35849338 -120.95458984 19.34716797 C-108.98124704 31.74295317 -96.81291472 40.07817088 -79.19140625 40.53125 C-76.79365493 40.55253337 -74.39844235 40.54656855 -72.00073242 40.52148438 C-69.56913206 40.50005844 -67.14049487 40.5213705 -64.70898438 40.546875 C-46.20173512 40.58833885 -32.76355743 35.1683908 -19.54232788 22.01040649 C-18.54616838 21.00163453 -17.55314655 19.98975482 -16.56323242 18.97485352 C-15.05043567 17.42514128 -13.52183334 15.89243956 -11.99023438 14.36132812 C-6.46182197 8.85507968 -6.46182197 8.85507968 -1.74780273 2.66430664 C-1.17102783 1.78508545 -0.59425293 0.90586426 0 0 Z " fill="#E5A082" transform="translate(325,261)"/>
<path d="M0 0 C15.0244901 2.2270815 29.16412123 8.67436392 39.08203125 20.34765625 C42.70747001 25.36124672 44.50603654 30.33259734 45.625 36.375 C44.08723102 45.29406007 38.696164 53.13228454 33 60 C24.07276061 59.59421639 15.59381817 54.85146778 9 49 C-3.66076289 34.03962916 -1.23024234 18.34379208 0 0 Z " fill="#00466E" transform="translate(326,266)"/>
<path d="M0 0 C0.11765973 4.27059561 0.18773631 8.54076597 0.25 12.8125 C0.28351563 14.00810547 0.31703125 15.20371094 0.3515625 16.43554688 C0.48473508 28.6541308 -2.15087795 37.03274408 -10.7109375 45.84375 C-16.54012672 51.33472687 -24.14705759 57.02730766 -32.51171875 56.98828125 C-36.10312102 55.56186873 -37.66230113 52.94172552 -39.6875 49.8125 C-40.07744141 49.24724609 -40.46738281 48.68199219 -40.86914062 48.09960938 C-44.72404064 42.34691243 -46.89563647 36.94118267 -46 30 C-41.11256949 17.23354449 -34.65793386 11.2753101 -22.5625 5.71582031 C-15.28850007 2.53186128 -8.00629731 0 0 0 Z " fill="#00466E" transform="translate(187,269)"/>
<path d="M0 0 C7.12419699 4.44755372 11.16758512 11.14274708 13.07421875 19.22265625 C14.03701788 23.83525731 14.57001409 28.43678237 15 33.125 C15.81629314 41.44706736 16.83650251 49.71936362 18 58 C17.34 57.67 16.68 57.34 16 57 C15.18359375 54.1484375 15.18359375 54.1484375 14.4375 50.375 C14.30456543 49.70637939 14.17163086 49.03775879 14.03466797 48.34887695 C13.15025281 43.61742188 12.79689502 39.00547173 12.625 34.1875 C12.13513487 25.34219946 9.65198397 19.18339919 3.1875 13.0625 C-2.85943429 7.81494722 -9.89604067 6.45989153 -17.6875 6.5625 C-18.46770508 6.56644775 -19.24791016 6.57039551 -20.05175781 6.57446289 C-26.14004045 6.72361209 -31.47100011 7.91191671 -37.203125 10.02734375 C-50.60382713 14.68764379 -68.68272213 13.58763792 -82.0625 9.5 C-93.12498492 6.13290038 -103.88220427 4.59582468 -114.75 9.625 C-122.33659754 14.07124364 -126.21170973 19.69937551 -129 28 C-129.83396358 31.6468238 -130.47395862 35.29694555 -131 39 C-133.45038571 32.00141634 -131.01172809 21.69054629 -128.25 15 C-124.29220029 7.35685781 -119.40322104 2.75382019 -111.53515625 -0.90234375 C-99.72004629 -4.57090275 -84.85369743 -2.17661935 -73.22265625 1.046875 C-68.48443608 2.25304962 -63.87188426 2.3831063 -59 2.375 C-58.08589355 2.37483887 -57.17178711 2.37467773 -56.22998047 2.37451172 C-46.40473277 2.21175696 -37.81551549 -0.16895078 -28.4765625 -3.109375 C-18.75736631 -5.5992365 -8.88939434 -4.63983021 0 0 Z " fill="#E29E80" transform="translate(314,71)"/>
<path d="M0 0 C5.77538065 4.79233713 5.77538065 4.79233713 6.19213867 8.88842773 C6.31618482 16.51845108 4.93052645 23.62907284 3.3125 31.0625 C3.06822266 32.27744141 2.82394531 33.49238281 2.57226562 34.74414062 C0.29560096 45.37818193 -3.29953541 54.10765665 -12 61 C-15.84553062 63.36925014 -19.59420371 65.00356714 -24 66 C-23.57696315 56.34308984 -22.64074217 46.83943292 -21.4375 37.25 C-20.05876145 26.10641468 -19.65822966 15.21513027 -20 4 C-18.75264433 3.3490741 -17.50198168 2.70448331 -16.25 2.0625 C-15.55390625 1.70285156 -14.8578125 1.34320313 -14.140625 0.97265625 C-9.41901334 -1.17274759 -5.02407232 -1.48529122 0 0 Z " fill="#F0B496" transform="translate(360,156)"/>
<path d="M0 0 C3.32489996 2.11891265 5.50023046 3.71963371 6.67651367 7.58105469 C7.0361223 10.78056075 7.15841986 13.91566349 7.20581055 17.13500977 C7.30887935 19.54668716 7.41712749 21.95814769 7.5300293 24.36938477 C7.58078613 25.6178418 7.63154297 26.86629883 7.68383789 28.15258789 C8.03348647 34.59133788 8.77972232 40.98110931 9.51831055 47.38500977 C9.78356352 49.70506815 10.04674139 52.02536518 10.30737305 54.34594727 C10.42032715 55.32096191 10.53328125 56.29597656 10.6496582 57.30053711 C10.88235017 59.88812773 10.93761541 62.41374487 10.89331055 65.01000977 C1.23593953 62.46153686 -5.23699036 58.14342821 -10.6953125 49.7253418 C-13.31257725 44.69001598 -14.29960533 39.28620217 -15.41918945 33.76000977 C-15.66991211 32.60243164 -15.92063477 31.44485352 -16.17895508 30.25219727 C-16.84162629 27.17512878 -17.48223809 24.09502988 -18.10668945 21.01000977 C-18.29223389 20.11572266 -18.47777832 19.22143555 -18.66894531 18.30004883 C-19.64962297 13.16967716 -19.8604924 7.97827301 -17.98168945 3.07250977 C-12.80190644 -2.62525155 -6.7406163 -3.16759753 0 0 Z " fill="#F0B496" transform="translate(165.106689453125,156.989990234375)"/>
</svg>
